<svg xmlns="http://www.w3.org/2000/svg" viewBox="0 0 1200 700" width="1200" height="700">
<style>
.box { fill:#ffffff; stroke:#2b6cb0; stroke-width:2; rx:8; ry:8; }
.title { font: bold 18px sans-serif; fill:#1e293b; }
.label { font: 14px sans-serif; fill:#0f172a; }
.arrow { stroke:#1f2937; stroke-width:3; marker-end: url(#arrowhead); }
</style>


<defs>
<marker id="arrowhead" markerWidth="10" markerHeight="7" refX="10" refY="3.5" orient="auto">
<polygon points="0 0, 10 3.5, 0 7" fill="#1f2937" />
</marker>
</defs>


<!-- left column -->
<rect x="40" y="40" width="220" height="70" class="box"/>
<text x="150" y="82" text-anchor="middle" class="title">FASTQ Input</text>
<text x="150" y="100" text-anchor="middle" class="label">sample_1/2.fastq.gz</text>


<rect x="40" y="140" width="220" height="70" class="box"/>
<text x="150" y="182" text-anchor="middle" class="title">fastp</text>
<text x="150" y="200" text-anchor="middle" class="label">QC & trimmed FASTQ</text>


<rect x="40" y="240" width="220" height="70" class="box"/>
<text x="150" y="282" text-anchor="middle" class="title">BWA-MEM2</text>
<text x="150" y="300" text-anchor="middle" class="label">SAM</text>


<!-- center column -->
<rect x="420" y="40" width="320" height="70" class="box"/>
<text x="580" y="82" text-anchor="middle" class="title">Sort & MarkDuplicates</text>
<text x="580" y="100" text-anchor="middle" class="label">coordinate BAM + metrics</text>


<rect x="420" y="140" width="320" height="70" class="box"/>
<text x="580" y="182" text-anchor="middle" class="title">BQSR</text>
<text x="580" y="200" text-anchor="middle" class="label">recalibrated BAM</text>


<rect x="420" y="240" width="320" height="70" class="box"/>
<text x="580" y="282" text-anchor="middle" class="title">HaplotypeCaller (scatter)</text>
<text x="580" y="300" text-anchor="middle" class="label">per-chromosome VCFs</text>


<!-- right column -->
<rect x="820" y="140" width="300" height="70" class="box"/>
<text x="970" y="182" text-anchor="middle" class="title">Merge VCF</text>
<text x="970" y="200" text-anchor="middle" class="label">per-sample merged VCF</text>


<rect x="820" y="240" width="300" height="70" class="box"/>
<text x="970" y="282" text-anchor="middle" class="title">1000G / SnpSift</text>
<text x="970" y="300" text-anchor="middle" class="label">population freq annotation</text>


<rect x="820" y="340" width="300" height="70" class="box"/>
<text x="970" y="382" text-anchor="middle" class="title">ANNOVAR</text>
<text x="970" y="400" text-anchor="middle" class="label">multi-db annotation</text>


<rect x="820" y="440" width="300" height="70" class="box"/>
<text x="970" y="482" text-anchor="middle" class="title">Filtering & TSV</text>
<text x="970" y="500" text-anchor="middle" class="label">final clinical TSV</text>


<!-- arrows -->
<line x1="260" y1="75" x2="420" y2="75" class="arrow" />
<line x1="260" y1="175" x2="420" y2="175" class="arrow" />
</svg>